<svg width="350" height="200" viewBox="0 0 350 200" fill="none" xmlns="http://www.w3.org/2000/svg">
	<g filter="url(#filter0_d_88_682)">
		<rect x="3" width="342" height="192" rx="8" fill="#328E62"/>
	</g>
	<mask id="mask0_88_682" style="mask-type:alpha" maskUnits="userSpaceOnUse" x="3" y="0" width="342" height="192">
		<rect x="3" width="342" height="192" rx="8" fill="#FFD62A"/>
	</mask>
	<g mask="url(#mask0_88_682)">
		<path d="M332.139 44.4056L325.176 49.4292L328.34 55.593L320.389 59.1729L321.496 66.0733L313.06 67.9835L312.041 75.1873L303.647 75.3086L300.565 82.3617L292.742 80.6879L287.791 87.1489L281.031 83.7824L274.522 89.2432L269.249 84.3975L261.592 88.5172L258.137 82.4956L249.812 85.0147L248.394 78.196L239.924 78.9555L240.629 71.7685L232.547 70.7202L235.334 63.6169L228.147 60.8279L232.837 54.254L227 49.8999L233.302 44.2675L229.176 38.6204L236.691 34.2852L234.539 27.7008L242.797 24.9327L242.753 17.8252L251.235 16.8L253.302 9.61507L261.475 10.3976L265.523 3.5872L272.873 6.12723L278.648 0.118188L284.711 4.25673L291.85 -0.572266L296.248 4.90324L304.304 1.55768L306.76 8.02912L315.223 6.3783L315.583 13.4356L323.925 13.582L322.165 20.7837L329.861 22.717L326.093 29.611L332.658 33.2119L327.118 39.3632L332.141 44.4035L332.139 44.4056Z" fill="#679F10"/>
		<path d="M271.273 76.5219C261.594 76.8588 238.803 72.0319 236.248 63.5372C236.116 63.0916 234.363 56.9256 235.637 48.5502C240.556 14.6677 286.923 -4.37624 316.569 12.5587L316.634 12.3725C328.013 34.7035 304.76 79.3737 271.273 76.5219ZM289.723 6.51619C259.393 5.30894 228.234 36.9987 236.528 63.531C248.452 80.3529 292.012 82.0226 306.283 59.9259C319.912 40.6162 321.952 25.9033 316.59 12.8516C307.833 8.80515 298.491 6.44087 289.725 6.51619H289.723Z" fill="black"/>
		<path d="M235.306 61.3593C231.153 73.392 286.67 95.769 312.34 59.7378C337.483 24.4493 315.583 10.544 315.583 10.544C289.444 -8.31795 224.51 16.2789 235.306 61.3593Z" fill="#F5F5A0"/>
		<path d="M240.188 67.2258C265.385 49.5774 291.645 38.777 317.851 18.1304C327.679 33.3852 316.759 38.2058 313.457 46.8553C302.801 66.9789 293.302 65.1126 283.377 71.3874C266.929 78.2668 251.997 79.043 240.188 67.2237V67.2258Z" fill="#FEB505"/>
		<path d="M249.641 63.9558C249.641 63.9558 244.594 70.8164 247.634 72.5174C250.674 74.2185 271.312 81.4096 275.466 69.9544C279.619 58.4991 277.849 47.9038 273.543 49.6341C269.237 51.3644 249.638 63.9558 249.638 63.9558H249.641Z" fill="#FFD62A"/>
		<path d="M279.09 47.2831C274.771 63.9628 292.779 73.5769 303.837 52.7C308.53 41.5335 304.065 34.244 298.424 36.2233C292.784 38.2005 279.09 47.2831 279.087 47.2831H279.09Z" fill="#FFD62A"/>
		<path d="M314.1 21.3927C314.1 21.3927 299.324 29.8937 300.916 33.5803C302.509 37.2648 316.263 42.2926 318.68 37.1665C321.096 32.0383 319.605 23.2653 318.676 22.1878C317.749 21.1103 314.098 21.3948 314.098 21.3948L314.1 21.3927Z" fill="#FFD62A"/>
		<path d="M237.265 62.5252C263.768 48.3144 284.743 30.1617 314.305 16.3924C305.264 1.10614 296.255 8.50864 287.235 7.58176C264.946 8.01905 262.412 17.1247 252.568 23.0228C239.33 34.34 232.101 47.0255 237.265 62.5252Z" fill="#FEB505"/>
		<path d="M244.274 55.718C244.274 55.718 236.055 57.0989 235.899 53.699C235.744 50.299 238.503 29.1335 250.352 30.552C262.201 31.9706 270.699 38.1784 267.295 41.1725C263.891 44.1665 244.274 55.718 244.274 55.718Z" fill="#FFD62A"/>
		<path d="M271.785 37.3716C255.33 33.8189 254.733 13.871 277.899 13.4023C289.731 14.2225 294.152 21.3258 289.949 25.3744C285.743 29.423 271.785 37.3716 271.785 37.3716Z" fill="#FFD62A"/>
		<path d="M309.806 18.2289C309.806 18.2289 295.884 27.3743 293.357 24.3656C290.829 21.3569 292.463 7.144 298.01 7.29465C303.559 7.4432 310.585 12.607 311.12 13.8895C311.656 15.1721 309.806 18.231 309.806 18.231V18.2289Z" fill="#FFD62A"/>
		<path d="M316.397 10.9124L334.024 -10C339.579 -8.68186 339.923 -2.0828 340 1.65193L323.268 18.3818L316.397 10.9124Z" fill="#913D05"/>
		<path d="M299.096 9.73181C299.257 11.255 297.401 13.2113 296.88 15.2533C296.163 17.1406 295.809 19.6011 295.692 21.1515C295.575 22.4236 295.497 23.3107 295.106 23.4237C292.754 22.2876 292.959 16.9418 294.256 14.1905C295.922 10.4244 298.703 9.28824 299.096 9.73181Z" fill="#FCE789"/>
		<path d="M273.38 17.4075C273.375 17.7025 272.719 17.9284 271.744 18.3406C269.134 19.2382 266.145 22.0314 265.592 25.1301C265.121 27.1617 265.498 29.1012 265.906 30.4445C266.318 31.8003 266.755 32.6498 266.5 32.8883C264.01 32.5933 262.178 28.1158 262.822 24.5924C263.268 20.4852 267.795 16.5601 271.457 16.7777C272.721 16.7777 273.386 17.1376 273.382 17.4075H273.38Z" fill="#FCE789"/>
		<path d="M249.298 32.8896C249.565 33.1826 248.806 34.2978 247.689 36.0406C246.534 37.8421 245.151 40.129 243.989 43.0581C242.834 45.9601 242.255 48.6487 241.87 50.741C241.495 52.7559 241.284 54.074 240.891 54.1033C238.983 51.8018 239.788 46.071 241.272 42.1124C242.858 38.1601 246.293 33.2516 249.302 32.8896H249.298Z" fill="#FCE789"/>
		<path d="M311.796 25.4342C311.907 25.8213 311.327 26.3255 310.557 27.0222C309.484 27.9428 307.909 29.6146 307.132 31.1524C306.078 33.1003 305.756 34.9457 305.107 34.9917C304.578 35.0294 303.49 33.048 304.609 30.0393C305.431 27.334 309.649 23.8545 311.796 25.4363V25.4342Z" fill="#FCE789"/>
		<path d="M295.932 39.579C295.999 39.9703 294.57 40.4913 292.553 41.619C290.061 42.9016 286.32 45.9689 284.555 49.2433C283.107 51.7394 282.454 54.1811 282.073 56.0244C281.696 57.8488 281.563 59.0373 281.213 59.0749C279.364 56.8948 280.175 51.5657 282.077 47.8812C284.379 42.9434 291.938 37.9826 295.93 39.579H295.932Z" fill="#FCE789"/>
		<path d="M266.498 55.8253C266.647 56.1935 265.642 56.9488 264.086 58.0849C262.284 59.3738 259.508 61.5226 257.401 63.6902C255.553 65.5565 254.219 67.2345 253.118 68.5882C252.061 69.8875 251.35 70.6951 251.017 70.5403C250.415 70.2599 251.392 65.9833 255.338 61.7192C258.119 58.7461 263.462 55.0114 266.5 55.8253H266.498Z" fill="#FCE789"/>
		<path d="M348.585 176.833L344.639 179.68L346.431 183.173L341.926 185.202L342.553 189.112L337.772 190.195L337.195 194.277L332.437 194.346L330.691 198.343L326.257 197.395L323.452 201.056L319.621 199.148L315.932 202.243L312.944 199.497L308.604 201.832L306.646 198.419L301.928 199.847L301.124 195.982L296.324 196.413L296.724 192.34L292.143 191.746L293.723 187.72L289.65 186.14L292.308 182.414L289 179.946L292.571 176.754L290.233 173.554L294.492 171.097L293.272 167.366L297.952 165.797L297.927 161.769L302.734 161.188L303.906 157.116L308.537 157.56L310.832 153.7L314.997 155.14L318.27 151.734L321.706 154.079L325.752 151.343L328.245 154.446L332.81 152.55L334.202 156.217L338.998 155.282L339.202 159.281L343.93 159.364L342.932 163.446L347.293 164.541L345.158 168.448L348.879 170.489L345.739 173.975L348.586 176.832L348.585 176.833Z" fill="#679F10"/>
		<path d="M314.09 195.034C308.605 195.225 295.689 192.49 294.241 187.675C294.166 187.423 293.173 183.928 293.895 179.182C296.682 159.98 322.96 149.187 339.76 158.785L339.797 158.679C346.246 171.335 333.068 196.65 314.09 195.034ZM324.546 155.36C307.358 154.676 289.7 172.635 294.4 187.672C301.157 197.205 325.843 198.151 333.931 185.629C341.655 174.686 342.811 166.347 339.772 158.951C334.81 156.658 329.516 155.318 324.547 155.36H324.546Z" fill="black"/>
		<path d="M293.707 186.441C291.354 193.261 322.816 205.942 337.364 185.522C351.613 165.524 339.202 157.643 339.202 157.643C324.389 146.954 287.589 160.893 293.707 186.441Z" fill="#F5F5A0"/>
		<path d="M296.474 189.765C310.754 179.764 325.636 173.643 340.487 161.942C346.057 170.587 339.868 173.319 337.997 178.221C331.958 189.625 326.575 188.568 320.95 192.124C311.629 196.023 303.166 196.462 296.474 189.764V189.765Z" fill="#FEB505"/>
		<path d="M301.831 187.912C301.831 187.912 298.971 191.801 300.694 192.765C302.417 193.729 314.113 197.804 316.467 191.312C318.82 184.82 317.817 178.815 315.377 179.796C312.937 180.777 301.83 187.912 301.83 187.912H301.831Z" fill="#FFD62A"/>
		<path d="M318.52 178.464C316.073 187.916 326.279 193.365 332.545 181.533C335.205 175.205 332.674 171.074 329.478 172.196C326.281 173.316 318.52 178.464 318.519 178.464H318.52Z" fill="#FFD62A"/>
		<path d="M338.361 163.791C338.361 163.791 329.988 168.608 330.89 170.697C331.792 172.786 339.587 175.635 340.957 172.73C342.326 169.824 341.481 164.852 340.955 164.241C340.429 163.63 338.36 163.792 338.36 163.792L338.361 163.791Z" fill="#FFD62A"/>
		<path d="M294.817 187.102C309.837 179.048 321.724 168.761 338.478 160.957C333.354 152.294 328.248 156.489 323.136 155.964C310.505 156.212 309.069 161.372 303.49 164.715C295.988 171.129 291.891 178.318 294.817 187.102Z" fill="#FEB505"/>
		<path d="M298.79 183.244C298.79 183.244 294.132 184.027 294.043 182.1C293.955 180.173 295.519 168.178 302.234 168.982C308.949 169.786 313.765 173.304 311.836 175.001C309.907 176.698 298.79 183.244 298.79 183.244Z" fill="#FFD62A"/>
		<path d="M314.381 172.847C305.055 170.834 304.717 159.529 317.846 159.263C324.551 159.728 327.056 163.754 324.674 166.048C322.291 168.342 314.381 172.847 314.381 172.847Z" fill="#FFD62A"/>
		<path d="M335.928 161.998C335.928 161.998 328.038 167.181 326.606 165.475C325.173 163.77 326.099 155.716 329.243 155.801C332.387 155.885 336.369 158.812 336.673 159.538C336.976 160.265 335.928 161.999 335.928 161.999V161.998Z" fill="#FFD62A"/>
		<path d="M339.663 157.851L349.653 146C352.801 146.747 352.996 150.487 353.04 152.603L343.557 162.085L339.663 157.851Z" fill="#913D05"/>
		<path d="M329.858 157.183C329.95 158.046 328.898 159.155 328.603 160.312C328.196 161.381 327.996 162.776 327.929 163.655C327.863 164.375 327.819 164.878 327.597 164.942C326.264 164.298 326.381 161.269 327.116 159.71C328.06 157.575 329.635 156.931 329.858 157.183Z" fill="#FCE789"/>
		<path d="M315.284 161.532C315.282 161.699 314.91 161.827 314.357 162.061C312.878 162.57 311.184 164.153 310.871 165.909C310.604 167.06 310.818 168.159 311.049 168.921C311.282 169.689 311.53 170.17 311.386 170.306C309.975 170.138 308.936 167.601 309.301 165.604C309.554 163.276 312.12 161.052 314.195 161.175C314.911 161.175 315.288 161.379 315.286 161.532H315.284Z" fill="#FCE789"/>
		<path d="M301.637 170.306C301.788 170.472 301.358 171.104 300.725 172.092C300.07 173.113 299.286 174.409 298.628 176.069C297.974 177.713 297.645 179.237 297.427 180.423C297.215 181.565 297.095 182.312 296.872 182.328C295.791 181.024 296.247 177.776 297.088 175.533C297.987 173.293 299.934 170.511 301.639 170.306H301.637Z" fill="#FCE789"/>
		<path d="M337.056 166.082C337.119 166.301 336.79 166.587 336.354 166.982C335.745 167.503 334.853 168.451 334.413 169.322C333.815 170.426 333.632 171.472 333.265 171.498C332.965 171.519 332.348 170.396 332.983 168.691C333.449 167.158 335.839 165.186 337.056 166.083V166.082Z" fill="#FCE789"/>
		<path d="M328.065 174.097C328.103 174.319 327.294 174.614 326.151 175.254C324.738 175.98 322.618 177.719 321.617 179.574C320.797 180.989 320.427 182.373 320.211 183.417C319.998 184.451 319.922 185.125 319.724 185.146C318.676 183.911 319.136 180.891 320.213 178.802C321.518 176.004 325.802 173.193 328.064 174.097H328.065Z" fill="#FCE789"/>
		<path d="M311.384 183.304C311.469 183.513 310.899 183.941 310.017 184.585C308.996 185.316 307.423 186.533 306.229 187.762C305.182 188.819 304.425 189.77 303.802 190.538C303.203 191.274 302.8 191.732 302.611 191.644C302.27 191.485 302.823 189.061 305.06 186.645C306.636 184.96 309.664 182.843 311.386 183.304H311.384Z" fill="#FCE789"/>
	</g>
	<defs>
		<filter id="filter0_d_88_682" x="0" y="0" width="350" height="200" filterUnits="userSpaceOnUse" color-interpolation-filters="sRGB">
			<feFlood flood-opacity="0" result="BackgroundImageFix"/>
			<feColorMatrix in="SourceAlpha" type="matrix" values="0 0 0 0 0 0 0 0 0 0 0 0 0 0 0 0 0 0 127 0" result="hardAlpha"/>
			<feOffset dx="1" dy="4"/>
			<feGaussianBlur stdDeviation="2"/>
			<feComposite in2="hardAlpha" operator="out"/>
			<feColorMatrix type="matrix" values="0 0 0 0 0 0 0 0 0 0 0 0 0 0 0 0 0 0 0.08 0"/>
			<feBlend mode="normal" in2="BackgroundImageFix" result="effect1_dropShadow_88_682"/>
			<feBlend mode="normal" in="SourceGraphic" in2="effect1_dropShadow_88_682" result="shape"/>
		</filter>
	</defs>
</svg>
