<svg width="390" height="176" viewBox="0 0 390 176" fill="none" xmlns="http://www.w3.org/2000/svg">
<rect width="390" height="176" fill="#90CD32"/>
<mask id="mask0_0_1" style="mask-type:alpha" maskUnits="userSpaceOnUse" x="0" y="0" width="390" height="176">
<rect width="390" height="176" fill="#90CD32"/>
</mask>
<g mask="url(#mask0_0_1)">
<path d="M386.974 143.132L380.75 147.622L383.578 153.132L376.472 156.331L377.461 162.499L369.921 164.206L369.01 170.645L361.507 170.754L358.752 177.058L351.76 175.562L347.336 181.336L341.293 178.327L335.475 183.208L330.763 178.877L323.918 182.559L320.831 177.177L313.39 179.429L312.122 173.334L304.552 174.013L305.182 167.589L297.958 166.652L300.449 160.303L294.025 157.811L298.218 151.935L293 148.043L298.633 143.009L294.945 137.961L301.662 134.087L299.738 128.201L307.119 125.727L307.08 119.375L314.661 118.458L316.509 112.036L323.814 112.736L327.432 106.649L334.002 108.919L339.163 103.548L344.583 107.247L350.964 102.931L354.894 107.825L362.094 104.835L364.29 110.619L371.854 109.143L372.176 115.451L379.632 115.582L378.059 122.019L384.938 123.747L381.569 129.909L387.438 133.127L382.486 138.625L386.976 143.13L386.974 143.132Z" fill="#679F10"/>
<path d="M332.571 171.838C323.92 172.139 303.549 167.825 301.266 160.232C301.148 159.834 299.581 154.323 300.72 146.837C305.116 116.553 346.56 99.5311 373.057 114.668L373.115 114.501C383.286 134.461 362.502 174.387 332.571 171.838ZM349.062 109.267C321.953 108.188 294.103 136.512 301.516 160.227C312.174 175.262 351.108 176.755 363.863 157.005C376.045 139.746 377.869 126.595 373.076 114.929C365.249 111.313 356.899 109.199 349.064 109.267H349.062Z" fill="black"/>
<path d="M300.424 158.286C296.712 169.041 346.333 189.042 369.277 156.837C391.75 125.296 372.176 112.867 372.176 112.867C348.813 96.0082 290.775 117.993 300.424 158.286Z" fill="#F5F5A0"/>
<path d="M304.787 163.529C327.309 147.755 350.78 138.102 374.203 119.647C382.987 133.282 373.227 137.591 370.276 145.322C360.752 163.309 352.261 161.64 343.39 167.249C328.689 173.398 315.342 174.091 304.787 163.527V163.529Z" fill="#FEB505"/>
<path d="M313.236 160.607C313.236 160.607 308.726 166.739 311.443 168.259C314.16 169.779 332.607 176.207 336.319 165.968C340.031 155.729 338.449 146.259 334.6 147.806C330.752 149.352 313.234 160.607 313.234 160.607H313.236Z" fill="#FFD62A"/>
<path d="M339.558 145.704C335.698 160.612 351.794 169.205 361.677 150.546C365.872 140.565 361.881 134.049 356.839 135.819C351.798 137.586 339.558 145.704 339.556 145.704H339.558Z" fill="#FFD62A"/>
<path d="M370.85 122.563C370.85 122.563 357.644 130.161 359.067 133.456C360.49 136.75 372.784 141.244 374.944 136.662C377.104 132.078 375.77 124.237 374.94 123.274C374.112 122.311 370.848 122.565 370.848 122.565L370.85 122.563Z" fill="#FFD62A"/>
<path d="M302.175 159.328C325.863 146.626 344.611 130.401 371.033 118.094C362.953 104.431 354.9 111.047 346.838 110.219C326.916 110.61 324.651 118.748 315.853 124.02C304.02 134.136 297.559 145.474 302.175 159.328Z" fill="#FEB505"/>
<path d="M308.44 153.244C308.44 153.244 301.094 154.478 300.954 151.439C300.815 148.4 303.282 129.482 313.872 130.75C324.462 132.018 332.059 137.567 329.016 140.243C325.974 142.919 308.44 153.244 308.44 153.244Z" fill="#FFD62A"/>
<path d="M333.029 136.845C318.321 133.67 317.788 115.84 338.494 115.421C349.069 116.154 353.021 122.503 349.264 126.122C345.505 129.74 333.029 136.845 333.029 136.845Z" fill="#FFD62A"/>
<path d="M367.013 119.736C367.013 119.736 354.569 127.91 352.31 125.221C350.051 122.532 351.511 109.828 356.469 109.963C361.429 110.096 367.708 114.711 368.187 115.857C368.666 117.004 367.013 119.738 367.013 119.738V119.736Z" fill="#FFD62A"/>
<path d="M372.903 113.196L388.659 94.5044C393.624 95.6826 393.931 101.581 394 104.919L379.045 119.872L372.903 113.196Z" fill="#913D05"/>
<path d="M357.44 112.141C357.584 113.503 355.925 115.251 355.459 117.077C354.818 118.763 354.502 120.963 354.397 122.348C354.292 123.485 354.223 124.278 353.873 124.379C351.771 123.364 351.955 118.586 353.114 116.127C354.603 112.76 357.088 111.745 357.44 112.141Z" fill="#FCE789"/>
<path d="M334.454 119.001C334.451 119.264 333.863 119.466 332.992 119.835C330.66 120.637 327.988 123.133 327.494 125.903C327.073 127.719 327.41 129.453 327.774 130.653C328.143 131.865 328.534 132.624 328.305 132.837C326.08 132.574 324.442 128.572 325.018 125.422C325.416 121.751 329.463 118.243 332.736 118.438C333.865 118.438 334.46 118.759 334.456 119.001H334.454Z" fill="#FCE789"/>
<path d="M312.93 132.839C313.169 133.101 312.49 134.098 311.492 135.656C310.459 137.266 309.223 139.31 308.185 141.928C307.153 144.522 306.635 146.925 306.291 148.795C305.956 150.596 305.767 151.774 305.416 151.8C303.71 149.743 304.43 144.621 305.756 141.083C307.173 137.55 310.244 133.163 312.933 132.839H312.93Z" fill="#FCE789"/>
<path d="M368.791 126.176C368.89 126.522 368.372 126.973 367.684 127.596C366.725 128.418 365.316 129.913 364.623 131.287C363.68 133.028 363.392 134.678 362.812 134.719C362.339 134.752 361.367 132.981 362.367 130.292C363.102 127.874 366.872 124.764 368.791 126.178V126.176Z" fill="#FCE789"/>
<path d="M354.612 138.818C354.672 139.168 353.395 139.634 351.592 140.641C349.365 141.788 346.021 144.529 344.443 147.456C343.148 149.687 342.565 151.87 342.225 153.517C341.888 155.148 341.768 156.21 341.456 156.244C339.803 154.295 340.528 149.532 342.228 146.239C344.285 141.825 351.042 137.391 354.61 138.818H354.612Z" fill="#FCE789"/>
<path d="M328.304 153.339C328.436 153.668 327.539 154.344 326.147 155.359C324.537 156.511 322.056 158.432 320.172 160.369C318.521 162.037 317.328 163.537 316.344 164.747C315.4 165.908 314.764 166.63 314.467 166.492C313.928 166.241 314.802 162.419 318.329 158.607C320.814 155.95 325.59 152.612 328.306 153.339H328.304Z" fill="#FCE789"/>
<path d="M4.02585 143.132L10.2495 147.622L7.42194 153.132L14.5283 156.331L13.539 162.499L21.0792 164.206L21.99 170.645L29.4928 170.754L32.2475 177.058L39.2397 175.562L43.6644 181.336L49.7067 178.327L55.5245 183.208L60.2372 178.877L67.0817 182.559L70.1692 177.177L77.6104 179.429L78.8783 173.334L86.4484 174.013L85.8182 167.589L93.0424 166.652L90.5514 160.303L96.9752 157.811L92.7824 151.935L98 148.043L92.3673 143.009L96.0551 137.961L89.3377 134.087L91.262 128.201L83.8808 125.727L83.9201 119.375L76.3387 118.458L74.491 112.036L67.1864 112.736L63.5678 106.649L56.9982 108.919L51.8367 103.548L46.4172 107.247L40.0364 102.931L36.1055 107.825L28.9056 104.835L26.7101 110.619L19.1456 109.143L18.8239 115.451L11.3678 115.582L12.9406 122.019L6.06238 123.747L9.43042 129.909L3.56207 133.127L8.51407 138.625L4.02398 143.13L4.02585 143.132Z" fill="#679F10"/>
<path d="M58.4287 171.838C67.0798 172.139 87.4507 167.825 89.7341 160.232C89.8519 159.834 91.4191 154.323 90.2802 146.837C85.8836 116.553 44.4404 99.5311 17.943 114.668L17.8851 114.501C7.71362 134.461 28.4979 174.387 58.4287 171.838ZM41.9382 109.267C69.0471 108.188 96.8966 136.512 89.4835 160.227C78.8259 175.262 39.8924 176.755 27.1364 157.005C14.9546 139.746 13.1313 126.595 17.9243 114.929C25.7507 111.313 34.1007 109.199 41.9364 109.267H41.9382Z" fill="black"/>
<path d="M90.5757 158.286C94.2878 169.041 44.6667 189.042 21.7225 156.837C-0.750438 125.296 18.8238 112.867 18.8238 112.867C42.1869 96.0082 100.225 117.993 90.5757 158.286Z" fill="#F5F5A0"/>
<path d="M86.2128 163.529C63.6912 147.755 40.2196 138.102 16.7967 119.647C8.01286 133.282 17.7729 137.591 20.7239 145.322C30.2483 163.309 38.7385 161.64 47.6103 167.249C62.3111 173.398 75.658 174.091 86.2128 163.527V163.529Z" fill="#FEB505"/>
<path d="M77.7637 160.607C77.7637 160.607 82.2744 166.739 79.5571 168.259C76.8399 169.779 58.3933 176.207 54.6811 165.968C50.969 155.729 52.5511 146.259 56.3998 147.806C60.2484 149.352 77.7656 160.607 77.7656 160.607H77.7637Z" fill="#FFD62A"/>
<path d="M51.4421 145.704C55.3019 160.612 39.206 169.205 29.3226 150.546C25.128 140.565 29.1187 134.049 34.1605 135.819C39.2023 137.586 51.4421 145.704 51.4439 145.704H51.4421Z" fill="#FFD62A"/>
<path d="M20.1498 122.563C20.1498 122.563 33.3564 130.161 31.9333 133.456C30.5101 136.75 18.2161 141.244 16.0562 136.662C13.8962 132.078 15.2296 124.237 16.0599 123.274C16.8884 122.311 20.1517 122.565 20.1517 122.565L20.1498 122.563Z" fill="#FFD62A"/>
<path d="M88.8253 159.328C65.1368 146.626 46.3891 130.401 19.9665 118.094C28.0472 104.431 36.0999 111.047 44.1618 110.219C64.084 110.61 66.3486 118.748 75.1474 124.02C86.9795 134.136 93.4407 145.474 88.8253 159.328Z" fill="#FEB505"/>
<path d="M82.5604 153.244C82.5604 153.244 89.9062 154.478 90.0464 151.439C90.1848 148.4 87.7182 129.482 77.1278 130.75C66.5375 132.018 58.9411 137.567 61.9838 140.243C65.0264 142.919 82.5604 153.244 82.5604 153.244Z" fill="#FFD62A"/>
<path d="M57.9706 136.845C72.6789 133.67 73.2119 115.84 52.5062 115.421C41.9308 116.154 37.9793 122.503 41.7363 126.122C45.4952 129.74 57.9706 136.845 57.9706 136.845Z" fill="#FFD62A"/>
<path d="M23.9873 119.736C23.9873 119.736 36.4309 127.91 38.6899 125.221C40.949 122.532 39.4885 109.828 34.5308 109.963C29.5714 110.096 23.2916 114.711 22.8128 115.857C22.3341 117.004 23.9873 119.738 23.9873 119.738V119.736Z" fill="#FFD62A"/>
<path d="M18.0965 113.196L2.34098 94.5044C-2.62413 95.6826 -2.93083 101.581 -3.00002 104.919L11.9551 119.872L18.0965 113.196Z" fill="#913D05"/>
<path d="M33.5604 112.141C33.4164 113.503 35.0751 115.251 35.5408 117.077C36.1822 118.763 36.4983 120.963 36.603 122.348C36.7077 123.485 36.7769 124.278 37.1266 124.379C39.2286 123.364 39.0453 118.586 37.8859 116.127C36.3973 112.76 33.9119 111.745 33.5604 112.141Z" fill="#FCE789"/>
<path d="M56.5456 119.001C56.5494 119.264 57.1366 119.466 58.0081 119.835C60.3401 120.637 63.0124 123.133 63.5061 125.903C63.9269 127.719 63.5903 129.453 63.2256 130.653C62.8572 131.865 62.4664 132.624 62.6945 132.837C64.9199 132.574 66.5581 128.572 65.9821 125.422C65.5838 121.751 61.5369 118.243 58.2643 118.438C57.1347 118.438 56.54 118.759 56.5438 119.001H56.5456Z" fill="#FCE789"/>
<path d="M78.0704 132.839C77.831 133.101 78.5098 134.098 79.5085 135.656C80.5408 137.266 81.7769 139.31 82.8148 141.928C83.8471 144.522 84.3651 146.925 84.7092 148.795C85.044 150.596 85.2328 151.774 85.5844 151.8C87.2899 149.743 86.5699 144.621 85.2441 141.083C83.8265 137.55 80.7558 133.163 78.0666 132.839H78.0704Z" fill="#FCE789"/>
<path d="M22.2088 126.176C22.1097 126.522 22.6277 126.973 23.3159 127.596C24.2752 128.418 25.6834 129.913 26.3772 131.287C27.3198 133.028 27.6078 134.678 28.1875 134.719C28.6606 134.752 29.6331 132.981 28.6326 130.292C27.8976 127.874 24.1275 124.764 22.2088 126.178V126.176Z" fill="#FCE789"/>
<path d="M36.3879 138.818C36.328 139.168 37.6053 139.634 39.4081 140.641C41.6354 141.788 44.9791 144.529 46.5575 147.456C47.8516 149.687 48.435 151.87 48.7754 153.517C49.112 155.148 49.2317 156.21 49.544 156.244C51.1972 154.295 50.4716 149.532 48.7716 146.239C46.7145 141.825 39.9579 137.391 36.3897 138.818H36.3879Z" fill="#FCE789"/>
<path d="M62.6963 153.339C62.5635 153.668 63.4612 154.344 64.8525 155.359C66.4627 156.511 68.9443 158.432 70.8275 160.369C72.4788 162.037 73.6719 163.537 74.6556 164.747C75.6 165.908 76.2358 166.63 76.5331 166.492C77.0717 166.241 76.1984 162.419 72.6714 158.607C70.186 155.95 65.4098 152.612 62.6944 153.339H62.6963Z" fill="#FCE789"/>
<path d="M393.618 30.3322L389.735 33.133L391.499 36.5695L387.066 38.5653L387.684 42.4124L382.98 43.4775L382.412 47.4937L377.732 47.5613L376.014 51.4936L371.652 50.5604L368.892 54.1625L365.124 52.2857L361.495 55.3302L358.555 52.6286L354.286 54.9254L352.36 51.5683L347.718 52.9727L346.927 49.1711L342.205 49.5946L342.599 45.5876L338.092 45.0032L339.646 41.043L335.639 39.488L338.255 35.8229L335 33.3954L338.513 30.2552L336.213 27.1069L340.403 24.6899L339.203 21.0189L343.807 19.4757L343.783 15.5131L348.512 14.9415L349.664 10.9358L354.22 11.372L356.477 7.57509L360.575 8.99122L363.795 5.64105L367.175 7.94837L371.155 5.2561L373.607 8.30882L378.098 6.44359L379.468 10.0516L384.186 9.1312L384.387 13.0658L389.038 13.1474L388.057 17.1625L392.347 18.2404L390.246 22.0839L393.907 24.0915L390.818 27.521L393.619 30.3311L393.618 30.3322Z" fill="#679F10"/>
<path d="M359.683 48.2379C354.287 48.4257 341.58 45.7346 340.156 40.9987C340.082 40.7502 339.105 37.3126 339.815 32.6431C342.558 13.7529 368.408 3.13544 384.936 12.577L384.973 12.4732C391.317 24.9232 378.353 49.8279 359.683 48.2379ZM369.969 9.20821C353.06 8.53514 335.688 26.2029 340.312 40.9952C346.96 50.3738 371.245 51.3047 379.202 38.9853C386.801 28.2197 387.938 20.0169 384.948 12.7404C380.066 10.4844 374.858 9.16621 369.97 9.20821H369.969Z" fill="black"/>
<path d="M339.631 39.7846C337.316 46.4931 368.267 58.9688 382.579 38.8806C396.597 19.2065 384.387 11.454 384.387 11.454C369.814 0.938013 333.612 14.6513 339.631 39.7846Z" fill="#F5F5A0"/>
<path d="M342.352 43.0551C356.401 33.2158 371.041 27.1943 385.652 15.6833C391.131 24.1883 385.043 26.8759 383.202 31.6981C377.261 42.9175 371.965 41.877 366.431 45.3753C357.261 49.2107 348.936 49.6435 342.352 43.054V43.0551Z" fill="#FEB505"/>
<path d="M347.623 41.2321C347.623 41.2321 344.809 45.057 346.504 46.0054C348.199 46.9538 359.705 50.963 362.021 44.5764C364.336 38.1899 363.349 32.2828 360.949 33.2475C358.548 34.2121 347.621 41.2321 347.621 41.2321H347.623Z" fill="#FFD62A"/>
<path d="M364.041 31.9363C361.633 41.2356 371.673 46.5956 377.838 34.9563C380.455 28.7307 377.966 24.6667 374.821 25.7702C371.676 26.8725 364.041 31.9363 364.04 31.9363H364.041Z" fill="#FFD62A"/>
<path d="M383.56 17.5019C383.56 17.5019 375.322 22.2414 376.21 24.2967C377.098 26.3509 384.766 29.154 386.113 26.2961C387.461 23.437 386.629 18.5459 386.111 17.9452C385.594 17.3444 383.559 17.5031 383.559 17.5031L383.56 17.5019Z" fill="#FFD62A"/>
<path d="M340.723 40.4342C355.499 32.5114 367.193 22.3909 383.674 14.7142C378.634 6.1918 373.611 10.3189 368.582 9.80209C356.156 10.0459 354.743 15.1225 349.255 18.4108C341.874 24.7204 337.844 31.7928 340.723 40.4342Z" fill="#FEB505"/>
<path d="M344.631 36.6396C344.631 36.6396 340.049 37.4095 339.961 35.514C339.875 33.6184 341.413 21.8181 348.019 22.609C354.625 23.3999 359.363 26.8609 357.465 28.5302C355.568 30.1994 344.631 36.6396 344.631 36.6396Z" fill="#FFD62A"/>
<path d="M359.969 26.4105C350.794 24.4298 350.462 13.3084 363.377 13.0471C369.974 13.5044 372.439 17.4646 370.095 19.7218C367.75 21.979 359.969 26.4105 359.969 26.4105Z" fill="#FFD62A"/>
<path d="M381.166 15.7384C381.166 15.7384 373.404 20.8371 371.995 19.1597C370.586 17.4823 371.497 9.55828 374.59 9.64226C377.683 9.72509 381.6 12.604 381.899 13.3191C382.198 14.0341 381.166 15.7395 381.166 15.7395V15.7384Z" fill="#FFD62A"/>
<path d="M384.841 11.6591L394.668 0C397.766 0.734891 397.957 4.41401 398 6.49621L388.672 15.8235L384.841 11.6591Z" fill="#913D05"/>
<path d="M375.195 11.0012C375.285 11.8505 374.25 12.9411 373.96 14.0796C373.56 15.1318 373.362 16.5036 373.297 17.368C373.232 18.0772 373.189 18.5718 372.971 18.6348C371.659 18.0014 371.774 15.021 372.497 13.487C373.425 11.3874 374.976 10.7539 375.195 11.0012Z" fill="#FCE789"/>
<path d="M360.858 15.2798C360.855 15.4442 360.489 15.5702 359.945 15.8C358.491 16.3004 356.824 17.8577 356.516 19.5853C356.254 20.718 356.463 21.7993 356.691 22.5482C356.921 23.3041 357.165 23.7777 357.022 23.9107C355.634 23.7462 354.612 21.2499 354.972 19.2855C355.22 16.9957 357.744 14.8073 359.786 14.9286C360.49 14.9286 360.861 15.1293 360.859 15.2798H360.858Z" fill="#FCE789"/>
<path d="M347.431 23.9119C347.581 24.0752 347.157 24.6969 346.534 25.6686C345.89 26.673 345.119 27.9479 344.472 29.581C343.828 31.199 343.505 32.6979 343.29 33.8644C343.081 34.9877 342.964 35.7226 342.744 35.739C341.68 34.4558 342.13 31.2608 342.957 29.0538C343.841 26.8503 345.756 24.1137 347.434 23.9119H347.431Z" fill="#FCE789"/>
<path d="M382.276 19.7557C382.337 19.9715 382.014 20.2526 381.585 20.641C380.987 21.1543 380.108 22.0863 379.676 22.9437C379.088 24.0297 378.908 25.0585 378.546 25.0842C378.251 25.1052 377.645 24.0005 378.269 22.3231C378.727 20.8148 381.079 18.875 382.276 19.7568V19.7557Z" fill="#FCE789"/>
<path d="M373.431 27.6413C373.469 27.8594 372.672 28.1499 371.547 28.7786C370.158 29.4937 368.072 31.2037 367.088 33.0293C366.281 34.4209 365.917 35.7822 365.704 36.8099C365.495 37.8271 365.42 38.4897 365.225 38.5107C364.194 37.2952 364.646 34.3241 365.707 32.2699C366.99 29.517 371.204 26.7512 373.43 27.6413H373.431Z" fill="#FCE789"/>
<path d="M357.021 36.6992C357.104 36.9045 356.544 37.3256 355.676 37.959C354.672 38.6776 353.124 39.8756 351.949 41.084C350.919 42.1246 350.175 43.0601 349.561 43.8148C348.972 44.5392 348.576 44.9895 348.39 44.9031C348.054 44.7468 348.599 42.3625 350.799 39.9852C352.349 38.3276 355.329 36.2454 357.022 36.6992H357.021Z" fill="#FCE789"/>
<path d="M-3.61752 30.3322L0.264577 33.133L-1.49916 36.5695L2.93352 38.5653L2.31644 42.4124L7.01975 43.4775L7.58783 47.4937L12.2678 47.5613L13.9861 51.4936L18.3476 50.5604L21.1075 54.1625L24.8764 52.2857L28.5054 55.3302L31.445 52.6286L35.7143 54.9254L37.6402 51.5683L42.2817 52.9727L43.0726 49.1711L47.7946 49.5946L47.4015 45.5876L51.9076 45.0032L50.3539 41.043L54.3608 39.488L51.7455 35.8229L55 33.3954L51.4865 30.2552L53.7868 27.1069L49.5968 24.6899L50.7971 21.0189L46.193 19.4757L46.2175 15.5131L41.4885 14.9415L40.336 10.9358L35.7797 11.372L33.5225 7.57509L29.4246 8.99122L26.2051 5.64105L22.8246 7.94837L18.8445 5.2561L16.3925 8.30882L11.9015 6.44359L10.5321 10.0516L5.81359 9.1312L5.61295 13.0658L0.962144 13.1474L1.94316 17.1625L-2.3472 18.2404L-0.246346 22.0839L-3.9068 24.0915L-0.817931 27.521L-3.61868 30.3311L-3.61752 30.3322Z" fill="#679F10"/>
<path d="M30.3169 48.2379C35.7132 48.4257 48.4198 45.7346 49.8441 40.9987C49.9176 40.7502 50.8951 37.3126 50.1847 32.6431C47.4423 13.7529 21.5916 3.13544 5.06351 12.577L5.02735 12.4732C-1.31721 24.9232 11.6472 49.8279 30.3169 48.2379ZM20.0308 9.20821C36.9403 8.53514 54.3117 26.2029 49.6878 40.9952C43.0399 50.3738 18.7547 51.3047 10.798 38.9853C3.19946 28.2197 2.06212 20.0169 5.05185 12.7404C9.93363 10.4844 15.142 9.16621 20.0296 9.20821H20.0308Z" fill="black"/>
<path d="M50.369 39.7846C52.6845 46.4931 21.7327 58.9688 7.421 38.8806C-6.59677 19.2065 5.61293 11.454 5.61293 11.454C20.1859 0.938013 56.3881 14.6513 50.369 39.7846Z" fill="#F5F5A0"/>
<path d="M47.6476 43.0551C33.5995 33.2158 18.9588 27.1943 4.34844 15.6833C-1.13058 24.1883 4.95735 26.8759 6.79808 31.6981C12.739 42.9175 18.0349 41.877 23.5688 45.3753C32.7386 49.2107 41.0639 49.6435 47.6476 43.054V43.0551Z" fill="#FEB505"/>
<path d="M42.3774 41.2321C42.3774 41.2321 45.1909 45.057 43.496 46.0054C41.8011 46.9538 30.2948 50.963 27.9793 44.5764C25.6638 38.1899 26.6507 32.2828 29.0513 33.2475C31.452 34.2121 42.3785 41.2321 42.3785 41.2321H42.3774Z" fill="#FFD62A"/>
<path d="M25.9589 31.9363C28.3666 41.2356 18.3266 46.5956 12.1616 34.9563C9.5452 28.7307 12.0345 24.6667 15.1794 25.7702C18.3242 26.8725 25.9589 31.9363 25.9601 31.9363H25.9589Z" fill="#FFD62A"/>
<path d="M6.44 17.5019C6.44 17.5019 14.6778 22.2414 13.7901 24.2967C12.9024 26.3509 5.23384 29.154 3.88654 26.2961C2.53924 23.437 3.37095 18.5459 3.88887 17.9452C4.40563 17.3444 6.44116 17.5031 6.44116 17.5031L6.44 17.5019Z" fill="#FFD62A"/>
<path d="M49.2772 40.4342C34.5012 32.5114 22.8071 22.3909 6.3257 14.7142C11.3661 6.1918 16.389 10.3189 21.4178 9.80209C33.8445 10.0459 35.2571 15.1225 40.7455 18.4108C48.1259 24.7204 52.1561 31.7928 49.2772 40.4342Z" fill="#FEB505"/>
<path d="M45.3694 36.6396C45.3694 36.6396 49.9514 37.4095 50.0389 35.514C50.1252 33.6184 48.5866 21.8181 41.9807 22.609C35.3749 23.3999 30.6366 26.8609 32.5345 28.5302C34.4324 30.1994 45.3694 36.6396 45.3694 36.6396Z" fill="#FFD62A"/>
<path d="M30.0312 26.4105C39.2057 24.4298 39.5381 13.3084 26.6227 13.0471C20.0262 13.5044 17.5614 17.4646 19.9049 19.7218C22.2495 21.979 30.0312 26.4105 30.0312 26.4105Z" fill="#FFD62A"/>
<path d="M8.83367 15.7384C8.83367 15.7384 16.5955 20.8371 18.0046 19.1597C19.4138 17.4823 18.5027 9.55828 15.4104 9.64226C12.3168 9.72509 8.39973 12.604 8.10111 13.3191C7.80249 14.0341 8.83367 15.7395 8.83367 15.7395V15.7384Z" fill="#FFD62A"/>
<path d="M5.15924 11.6591L-4.66847 0C-7.76552 0.734891 -7.95683 4.41401 -7.99999 6.49621L1.32847 15.8235L5.15924 11.6591Z" fill="#913D05"/>
<path d="M14.805 11.0012C14.7152 11.8505 15.7498 12.9411 16.0403 14.0796C16.4404 15.1318 16.6375 16.5036 16.7029 17.368C16.7682 18.0772 16.8113 18.5718 17.0295 18.6348C18.3406 18.0014 18.2263 15.021 17.5031 13.487C16.5745 11.3874 15.0243 10.7539 14.805 11.0012Z" fill="#FCE789"/>
<path d="M29.1423 15.2798C29.1447 15.4442 29.511 15.5702 30.0545 15.8C31.5092 16.3004 33.1761 17.8577 33.484 19.5853C33.7465 20.718 33.5365 21.7993 33.3091 22.5482C33.0793 23.3041 32.8355 23.7777 32.9778 23.9107C34.3659 23.7462 35.3878 21.2499 35.0285 19.2855C34.78 16.9957 32.2557 14.8073 30.2144 14.9286C29.5098 14.9286 29.1388 15.1293 29.1412 15.2798H29.1423Z" fill="#FCE789"/>
<path d="M42.5687 23.9119C42.4193 24.0752 42.8428 24.6969 43.4657 25.6686C44.1096 26.673 44.8806 27.9479 45.5281 29.581C46.172 31.199 46.4951 32.6979 46.7097 33.8644C46.9185 34.9877 47.0363 35.7226 47.2556 35.739C48.3195 34.4558 47.8704 31.2608 47.0433 29.0538C46.1591 26.8503 44.2437 24.1137 42.5663 23.9119H42.5687Z" fill="#FCE789"/>
<path d="M7.72434 19.7557C7.66252 19.9715 7.98564 20.2526 8.41491 20.641C9.01332 21.1543 9.89169 22.0863 10.3245 22.9437C10.9124 24.0297 11.092 25.0585 11.4536 25.0842C11.7487 25.1052 12.3553 24.0005 11.7312 22.3231C11.2728 20.8148 8.92116 18.875 7.72434 19.7568V19.7557Z" fill="#FCE789"/>
<path d="M16.5687 27.6413C16.5314 27.8594 17.3281 28.1499 18.4526 28.7786C19.8419 29.4937 21.9276 31.2037 22.9121 33.0293C23.7193 34.4209 24.0833 35.7822 24.2956 36.8099C24.5055 37.8271 24.5802 38.4897 24.775 38.5107C25.8062 37.2952 25.3536 34.3241 24.2932 32.2699C23.0101 29.517 18.7955 26.7512 16.5699 27.6413H16.5687Z" fill="#FCE789"/>
<path d="M32.9789 36.6992C32.8961 36.9045 33.456 37.3256 34.3239 37.959C35.3282 38.6776 36.8762 39.8756 38.0508 41.084C39.0808 42.1246 39.8251 43.0601 40.4386 43.8148C41.0277 44.5392 41.4243 44.9895 41.6098 44.9031C41.9457 44.7468 41.401 42.3625 39.201 39.9852C37.6507 38.3276 34.6715 36.2454 32.9777 36.6992H32.9789Z" fill="#FCE789"/>
</g>
</svg>
