<svg width="60" height="40" viewBox="0 0 60 40" fill="none" xmlns="http://www.w3.org/2000/svg">
	<path d="M0.876067 10.9078L1.12541 3.0633C1.12541 3.0633 1.3126 2.06724 2.31072 2.00522C3.30883 1.94319 3.49603 3.0633 3.49603 3.0633V7.79481L5.67945 1.32C5.67945 1.32 6.24103 -0.0496888 7.23915 0.385951C8.23726 0.82159 8.05007 1.63085 8.05007 1.63085L6.86476 6.17555L10.1713 0.697549C10.1713 0.697549 10.4836 -0.11171 11.3567 0.0130792C12.2297 0.137868 12.4169 0.947126 12.4169 0.947126C12.4169 0.947126 12.6041 1.50755 12.0425 2.4416C11.481 3.37565 9.98415 6.36385 9.98415 6.36385C9.98415 6.36385 12.3548 6.36385 14.7875 9.29004C14.7875 9.29004 15.7235 10.5349 14.7875 11.3442C13.8516 12.1535 12.7292 10.9706 12.7292 10.9706C12.7292 10.9706 10.5457 7.54673 5.99169 9.28929C5.99169 9.28929 2.99734 10.7838 2.8723 13.5852C2.74725 16.3866 4.05761 18.6903 6.61542 19.3127C9.17323 19.9352 12.4798 19.3748 13.7273 15.5153C13.7273 15.5153 13.8523 14.3944 13.7273 13.7099C13.7273 13.7099 13.7482 12.3403 15.2039 12.4023C16.6595 12.4643 16.4101 14.2076 16.4101 14.2076C16.4101 14.2076 16.9096 19.0011 11.6689 21.5537C11.6689 21.5537 5.99169 23.6706 2.62296 20.0592C-0.745777 16.4486 0.127294 12.0907 0.876067 10.9078Z" fill="#F8E100"/>
	<path d="M18.3435 20.7436V9.47528H21.2757L25.3924 16.3857V9.47528H28.1374V20.7436H25.4553L21.1506 13.958V20.7436H18.3435Z" fill="#010101"/>
	<path d="M29.76 20.7436H37.4956V18.4406H32.5043V16.1989H36.1852V14.2696H32.38V11.841H37.4956V9.47528H29.76V20.7436Z" fill="#010101"/>
	<path fill-rule="evenodd" clip-rule="evenodd" d="M0 33.8174V22.549H3.42489C3.42489 22.549 9.7438 21.9819 9.91377 27.903C10.0837 33.8241 4.50612 33.8174 4.50612 33.8174H0ZM2.6851 24.9154V24.9147L2.68435 24.9154H2.6851ZM2.6851 24.9154V31.5763H4.68133C4.68133 31.5763 6.9898 31.5614 7.30129 28.1764C7.30129 28.1764 7.36344 25.5379 4.99282 24.9154H2.6851Z" fill="#1C1F21"/>
	<path d="M11.2316 22.5348H13.9766V29.4602C13.9766 29.4602 14.0088 31.7012 16.4259 31.5771C18.8429 31.4531 18.6557 29.1493 18.6557 29.1493V22.5355H21.4007V29.3362C21.4007 29.3362 21.558 34.0677 16.4266 34.0677C11.2953 34.0677 11.2324 29.7098 11.2324 29.7098V22.5355L11.2316 22.5348Z" fill="#010101"/>
	<path fill-rule="evenodd" clip-rule="evenodd" d="M28.7612 22.5348H22.9597V33.8173H25.6425V30.3935H27.5137L29.1355 33.8173H32.0677L30.1337 29.8331C30.1337 29.8331 32.0677 28.899 32.0677 26.0356C32.0677 23.1722 28.7612 22.5348 28.7612 22.5348ZM25.6425 27.903V24.9148V24.9141H27.5137C27.5137 24.9141 29.167 24.7273 29.167 26.4086C29.167 28.0898 27.5137 27.903 27.5137 27.903H25.6425Z" fill="#1C1F21"/>
	<path d="M36.0917 22.5348H33.2845V33.8181H36.0917V22.5348Z" fill="#010101"/>
	<path fill-rule="evenodd" clip-rule="evenodd" d="M41.8467 22.5348L37.4275 33.8173H40.3028L41.0979 31.5764H45.5427L46.2443 33.8173H49.1922L44.6067 22.5348H41.8467ZM43.3098 25.5688L41.7995 29.4447H44.7475L43.3098 25.5688Z" fill="#1C1F21"/>
	<path d="M50.3154 33.8173V22.5348H53.1225L57.24 29.4445V22.5348H60V33.8173H57.3336L53.1225 27.0631V33.8173H50.3154Z" fill="#010101"/>
	<path d="M0.29129 36.6554C0.459764 36.621 0.701618 36.6016 0.931492 36.6016C1.28791 36.6016 1.51778 36.6666 1.67952 36.8123C1.8098 36.9274 1.88243 37.103 1.88243 37.3017C1.88243 37.6425 1.66754 37.8681 1.39573 37.96V37.9713C1.59491 38.04 1.71396 38.2238 1.77536 38.4913C1.85997 38.8507 1.92137 39.0996 1.97453 39.199H1.62935C1.58742 39.1265 1.52976 38.9045 1.45713 38.5832C1.38076 38.2276 1.24223 38.0938 0.939728 38.0818H0.625243V39.199H0.29129V36.6546V36.6554ZM0.625243 37.83H0.966684C1.3231 37.83 1.54923 37.635 1.54923 37.3406C1.54923 37.0073 1.30738 36.8623 0.954704 36.8586C0.793718 36.8586 0.678406 36.8743 0.625243 36.8892V37.8308V37.83Z" fill="#010101"/>
	<path d="M3.41588 39.1997L3.38893 38.9666H3.37769C3.27436 39.1123 3.07444 39.2423 2.81012 39.2423C2.43424 39.2423 2.24255 38.9785 2.24255 38.7103C2.24255 38.2627 2.64165 38.0176 3.35823 38.0213V37.9832C3.35823 37.83 3.3163 37.5543 2.93667 37.5543C2.76445 37.5543 2.58399 37.6081 2.45371 37.6918L2.37733 37.4699C2.53083 37.3705 2.75322 37.3055 2.98683 37.3055C3.55441 37.3055 3.69218 37.6918 3.69218 38.0632V38.7559C3.69218 38.9165 3.69967 39.0734 3.72288 39.1997H3.41588ZM3.36571 38.2545C2.99732 38.247 2.5795 38.312 2.5795 38.6714C2.5795 38.8896 2.72551 38.9927 2.89773 38.9927C3.13958 38.9927 3.29233 38.8396 3.34625 38.6826C3.35748 38.6483 3.36571 38.6102 3.36571 38.5758V38.2545Z" fill="#010101"/>
	<path d="M4.61282 36.8271C4.61657 36.9422 4.53188 37.0334 4.39774 37.0334C4.27858 37.0334 4.19464 36.9414 4.19464 36.8271C4.19464 36.7128 4.28307 36.6164 4.40598 36.6164C4.52889 36.6164 4.61357 36.7083 4.61357 36.8271H4.61282ZM4.23661 39.1996V37.3472H4.5746V39.1996H4.23661Z" fill="#010101"/>
	<path d="M5.08792 38.8552C5.18751 38.9202 5.36422 38.989 5.5327 38.989C5.77829 38.989 5.89286 38.8664 5.89286 38.7132C5.89286 38.5526 5.79701 38.4644 5.54767 38.3725C5.21372 38.2537 5.05722 38.0699 5.05722 37.8479C5.05722 37.549 5.29908 37.3047 5.69743 37.3047C5.88537 37.3047 6.0501 37.3585 6.15343 37.4198L6.06882 37.6649C5.99619 37.6185 5.86141 37.558 5.68919 37.558C5.49002 37.558 5.37845 37.6731 5.37845 37.8106C5.37845 37.9638 5.48927 38.0325 5.73112 38.1244C6.05309 38.247 6.21782 38.4076 6.21782 38.6833C6.21782 39.0084 5.96474 39.2378 5.52371 39.2378C5.32079 39.2378 5.13285 39.1877 5.00256 39.1115L5.08718 38.8552H5.08792Z" fill="#010101"/>
	<path d="M7.02835 36.8271C7.0321 36.9422 6.94741 37.0334 6.81326 37.0334C6.6941 37.0334 6.61017 36.9414 6.61017 36.8271C6.61017 36.7128 6.6986 36.6164 6.82151 36.6164C6.94441 36.6164 7.0291 36.7083 7.0291 36.8271H7.02835ZM6.65214 39.1996V37.3472H6.99013V39.1996H6.65214Z" fill="#010101"/>
	<path d="M7.54914 37.8493C7.54914 37.658 7.5454 37.5011 7.53342 37.3479H7.83218L7.85165 37.6543H7.85913C7.95123 37.478 8.16613 37.3061 8.47238 37.3061C8.72921 37.3061 9.12831 37.4593 9.12831 38.0944V39.2003H8.79061V38.1325C8.79061 37.8344 8.67979 37.5856 8.36081 37.5856C8.13843 37.5856 7.96621 37.7425 7.90855 37.93C7.89358 37.9719 7.88534 38.0294 7.88534 38.087V39.2003H7.54764V37.8493H7.54914Z" fill="#010101"/>
	<path d="M11.2758 37.3481C11.2683 37.4818 11.2601 37.6313 11.2601 37.857V38.9322C11.2601 39.3567 11.1754 39.6175 10.9957 39.7781C10.8153 39.9462 10.5547 40 10.3211 40C10.0875 40 9.85311 39.9462 9.70411 39.8469L9.78872 39.5906C9.91152 39.6668 10.1032 39.7363 10.3331 39.7363C10.6783 39.7363 10.9313 39.5562 10.9313 39.0899V38.8837H10.9239C10.8205 39.0555 10.6206 39.1938 10.3331 39.1938C9.87333 39.1938 9.54312 38.8037 9.54312 38.2911C9.54312 37.6634 9.95345 37.3077 10.3788 37.3077C10.7007 37.3077 10.8774 37.4759 10.9576 37.6291H10.965L10.98 37.3496H11.275L11.2758 37.3481ZM10.9269 38.0789C10.9269 38.0214 10.9231 37.972 10.9074 37.9257C10.846 37.7307 10.6813 37.57 10.4357 37.57C10.1137 37.57 9.88381 37.842 9.88381 38.2702C9.88381 38.6333 10.068 38.936 10.4319 38.936C10.6393 38.936 10.8265 38.806 10.8999 38.5915C10.9194 38.534 10.9269 38.4689 10.9269 38.4114V38.0781V38.0789Z" fill="#010101"/>
	<path d="M12.5981 38.7947C12.7479 38.8866 12.9665 38.9629 13.1964 38.9629C13.5378 38.9629 13.737 38.7828 13.737 38.5227C13.737 38.2814 13.5992 38.1439 13.2503 38.0101C12.8287 37.8607 12.5674 37.6425 12.5674 37.2793C12.5674 36.8773 12.9014 36.5792 13.403 36.5792C13.6673 36.5792 13.859 36.6404 13.9743 36.7054L13.8822 36.9774C13.7976 36.9319 13.6254 36.8549 13.3918 36.8549C13.0391 36.8549 12.9051 37.0656 12.9051 37.2412C12.9051 37.4826 13.0623 37.6006 13.4188 37.7389C13.856 37.907 14.0784 38.1177 14.0784 38.4966C14.0784 38.8949 13.7834 39.2386 13.1732 39.2386C12.9238 39.2386 12.652 39.1661 12.5135 39.0742L12.5981 38.7947Z" fill="#010101"/>
	<path d="M14.9178 36.816V37.348H15.4008V37.6043H14.9178V38.6034C14.9178 38.8328 14.983 38.9628 15.1709 38.9628C15.2593 38.9628 15.3244 38.9516 15.3664 38.9396L15.3821 39.1922C15.3169 39.2191 15.2136 39.2378 15.0833 39.2378C14.9261 39.2378 14.7995 39.1877 14.7194 39.0965C14.6236 38.9972 14.5891 38.8328 14.5891 38.6146V37.6043H14.3016V37.348H14.5891V36.9042L14.9186 36.816H14.9178Z" fill="#010101"/>
	<path d="M15.7804 37.9255C15.7804 37.7074 15.7767 37.5198 15.7647 37.3479H16.0597L16.071 37.7118H16.0867C16.1713 37.463 16.3742 37.3061 16.6003 37.3061C16.6385 37.3061 16.6655 37.3098 16.6962 37.3173V37.6349C16.6617 37.6274 16.6273 37.6237 16.5809 37.6237C16.3428 37.6237 16.1743 37.8038 16.1286 38.0563C16.1211 38.1019 16.1129 38.1557 16.1129 38.2132V39.2003H15.7789V37.9263L15.7804 37.9255Z" fill="#010101"/>
	<path d="M18.6752 38.2588C18.6752 38.944 18.1997 39.2422 17.7512 39.2422C17.2487 39.2422 16.8616 38.8745 16.8616 38.2895C16.8616 37.6692 17.2682 37.3061 17.7819 37.3061C18.2955 37.3061 18.6752 37.6924 18.6752 38.2588ZM17.2031 38.2782C17.2031 38.684 17.4367 38.9896 17.7669 38.9896C18.0971 38.9896 18.3307 38.687 18.3307 38.27C18.3307 37.9562 18.1735 37.5579 17.7744 37.5579C17.3753 37.5579 17.2031 37.9256 17.2031 38.2775V38.2782Z" fill="#010101"/>
	<path d="M19.1005 37.8493C19.1005 37.658 19.0967 37.5011 19.0847 37.3479H19.3835L19.403 37.6543H19.4105C19.5026 37.478 19.7175 37.3061 20.0237 37.3061C20.2805 37.3061 20.6796 37.4593 20.6796 38.0944V39.2003H20.3419V38.1325C20.3419 37.8344 20.2311 37.5856 19.9121 37.5856C19.6898 37.5856 19.5175 37.7425 19.4599 37.93C19.4449 37.9719 19.4367 38.0294 19.4367 38.087V39.2003H19.099V37.8493H19.1005Z" fill="#010101"/>
	<path d="M22.8279 37.3481C22.8204 37.4818 22.8122 37.6313 22.8122 37.857V38.9322C22.8122 39.3567 22.7275 39.6175 22.5478 39.7781C22.3674 39.9462 22.1068 40 21.8732 40C21.6396 40 21.4052 39.9462 21.2562 39.8469L21.3408 39.5906C21.4636 39.6668 21.6553 39.7363 21.8852 39.7363C22.2304 39.7363 22.4834 39.5562 22.4834 39.0899V38.8837H22.476C22.3726 39.0555 22.1727 39.1938 21.8852 39.1938C21.4254 39.1938 21.0952 38.8037 21.0952 38.2911C21.0952 37.6634 21.5055 37.3077 21.9308 37.3077C22.2528 37.3077 22.4295 37.4759 22.5096 37.6291H22.5171L22.5321 37.3496H22.8271L22.8279 37.3481ZM22.4789 38.0789C22.4789 38.0214 22.4752 37.972 22.4595 37.9257C22.3981 37.7307 22.2334 37.57 21.9878 37.57C21.6658 37.57 21.4359 37.842 21.4359 38.2702C21.4359 38.6333 21.6201 38.936 21.984 38.936C22.1914 38.936 22.3786 38.806 22.452 38.5915C22.4715 38.534 22.4789 38.4689 22.4789 38.4114V38.0781V38.0789Z" fill="#010101"/>
	<path d="M24.5912 36.816V37.348H25.0742V37.6043H24.5912V38.6034C24.5912 38.8328 24.6564 38.9628 24.8443 38.9628C24.9327 38.9628 24.9978 38.9516 25.0397 38.9396L25.0547 39.1922C24.9896 39.2191 24.8863 39.2378 24.756 39.2378C24.5987 39.2378 24.4722 39.1877 24.3921 39.0965C24.2962 38.9972 24.2618 38.8328 24.2618 38.6146V37.6043H23.9742V37.348H24.2618V36.9042L24.5912 36.816Z" fill="#010101"/>
	<path d="M25.4538 36.4827H25.7915V37.6387H25.799C25.8529 37.5431 25.9368 37.4586 26.0409 37.4011C26.1404 37.3435 26.2595 37.3054 26.386 37.3054C26.6354 37.3054 27.0337 37.4586 27.0337 38.0975V39.1997H26.696V38.1356C26.696 37.8375 26.5852 37.5849 26.2662 37.5849C26.0476 37.5849 25.8754 37.7381 25.814 37.9219C25.7945 37.9675 25.7908 38.0176 25.7908 38.0826V39.1997H25.4531V36.4827H25.4538Z" fill="#010101"/>
	<path d="M27.769 38.335C27.7765 38.7901 28.0678 38.9777 28.4055 38.9777C28.6473 38.9777 28.7926 38.9358 28.9191 38.882L28.9768 39.1234C28.8577 39.1772 28.6548 39.2384 28.3598 39.2384C27.7885 39.2384 27.4471 38.8633 27.4471 38.3051C27.4471 37.747 27.7765 37.3061 28.3171 37.3061C28.9229 37.3061 29.0839 37.8381 29.0839 38.1789C29.0839 38.2476 29.0764 38.3014 29.0726 38.3358H27.769V38.335ZM28.7582 38.0937C28.7619 37.8792 28.6698 37.5467 28.2902 37.5467C27.9487 37.5467 27.7997 37.8605 27.7728 38.0937H28.7582Z" fill="#010101"/>
	<path d="M30.2804 38.7947C30.4302 38.8866 30.6488 38.9629 30.8787 38.9629C31.2201 38.9629 31.4193 38.7828 31.4193 38.5227C31.4193 38.2814 31.2815 38.1439 30.9326 38.0101C30.511 37.8607 30.2497 37.6425 30.2497 37.2793C30.2497 36.8773 30.5836 36.5792 31.0853 36.5792C31.3496 36.5792 31.5413 36.6404 31.6566 36.7054L31.5645 36.9774C31.4799 36.9319 31.3077 36.8549 31.0741 36.8549C30.7214 36.8549 30.5874 37.0656 30.5874 37.2412C30.5874 37.4826 30.7446 37.6006 31.1011 37.7389C31.5383 37.907 31.7607 38.1177 31.7607 38.4966C31.7607 38.8949 31.4657 39.2386 30.8562 39.2386C30.6069 39.2386 30.3351 39.1661 30.1965 39.0742L30.2811 38.7947H30.2804Z" fill="#010101"/>
	<path d="M32.6001 36.816V37.348H33.0831V37.6043H32.6001V38.6034C32.6001 38.8328 32.6653 38.9628 32.8532 38.9628C32.9416 38.9628 33.0067 38.9516 33.0486 38.9396L33.0644 39.1922C32.9992 39.2191 32.8959 39.2378 32.7656 39.2378C32.6084 39.2378 32.4818 39.1877 32.4017 39.0965C32.3059 38.9972 32.2714 38.8328 32.2714 38.6146V37.6043H31.9839V37.348H32.2714V36.9042L32.6009 36.816H32.6001Z" fill="#010101"/>
	<path d="M34.49 39.1997L34.4631 38.9666H34.4519C34.3485 39.1123 34.1486 39.2423 33.8843 39.2423C33.5084 39.2423 33.3167 38.9785 33.3167 38.7103C33.3167 38.2627 33.7158 38.0176 34.4324 38.0213V37.9832C34.4324 37.83 34.3905 37.5543 34.0108 37.5543C33.8386 37.5543 33.6582 37.6081 33.5279 37.6918L33.4515 37.4699C33.605 37.3705 33.8274 37.3055 34.061 37.3055C34.6286 37.3055 34.7663 37.6918 34.7663 38.0632V38.7559C34.7663 38.9165 34.7738 39.0734 34.797 39.1997H34.49ZM34.4399 38.2545C34.0715 38.247 33.6537 38.312 33.6537 38.6714C33.6537 38.8896 33.7997 38.9927 33.9719 38.9927C34.2137 38.9927 34.3665 38.8396 34.4204 38.6826C34.4316 38.6483 34.4399 38.6102 34.4399 38.5758V38.2545Z" fill="#010101"/>
	<path d="M35.3107 37.8493C35.3107 37.658 35.3069 37.5011 35.295 37.3479H35.5937L35.6132 37.6543H35.6207C35.7128 37.478 35.9277 37.3061 36.2339 37.3061C36.4907 37.3061 36.8898 37.4593 36.8898 38.0944V39.2003H36.5521V38.1325C36.5521 37.8344 36.4406 37.5856 36.1223 37.5856C35.9 37.5856 35.7277 37.7425 35.6701 37.93C35.6544 37.9719 35.6469 38.0294 35.6469 38.087V39.2003H35.3092V37.8493H35.3107Z" fill="#010101"/>
	<path d="M39.0411 36.4827V38.7215C39.0411 38.8858 39.0448 39.0734 39.0568 39.1997H38.7535L38.7378 38.8784H38.7303C38.627 39.0854 38.4009 39.2423 38.0976 39.2423C37.6491 39.2423 37.3039 38.8634 37.3039 38.3008C37.3002 37.685 37.6835 37.3062 38.1358 37.3062C38.4196 37.3062 38.6113 37.4399 38.6959 37.5894H38.7034V36.4835H39.0411V36.4827ZM38.7034 38.1012C38.7034 38.0594 38.6996 38.0019 38.6884 37.96C38.6382 37.7456 38.4548 37.57 38.2017 37.57C37.8528 37.57 37.6461 37.8763 37.6461 38.2858C37.6461 38.6609 37.8303 38.971 38.1942 38.971C38.4203 38.971 38.6278 38.8216 38.6892 38.569C38.7004 38.5234 38.7041 38.4771 38.7041 38.4233V38.102L38.7034 38.1012Z" fill="#010101"/>
	<path d="M40.6285 39.1997L40.6015 38.9666H40.5903C40.487 39.1123 40.287 39.2423 40.0227 39.2423C39.6468 39.2423 39.4551 38.9785 39.4551 38.7103C39.4551 38.2627 39.8542 38.0176 40.5708 38.0213V37.9832C40.5708 37.83 40.5289 37.5543 40.1493 37.5543C39.977 37.5543 39.7966 37.6081 39.6663 37.6918L39.5899 37.4699C39.7434 37.3705 39.9658 37.3055 40.1994 37.3055C40.767 37.3055 40.9048 37.6918 40.9048 38.0632V38.7559C40.9048 38.9165 40.9123 39.0734 40.9355 39.1997H40.6285ZM40.5783 38.2545C40.2099 38.247 39.7921 38.312 39.7921 38.6714C39.7921 38.8896 39.9381 38.9927 40.1103 38.9927C40.3522 38.9927 40.5049 38.8396 40.5588 38.6826C40.5701 38.6483 40.5783 38.6102 40.5783 38.5758V38.2545Z" fill="#010101"/>
	<path d="M41.4491 37.9255C41.4491 37.7074 41.4454 37.5198 41.4334 37.3479H41.7284L41.7397 37.7118H41.7554C41.84 37.463 42.0429 37.3061 42.269 37.3061C42.3072 37.3061 42.3342 37.3098 42.3649 37.3173V37.6349C42.3304 37.6274 42.296 37.6237 42.2496 37.6237C42.0122 37.6237 41.843 37.8038 41.7973 38.0563C41.7898 38.1019 41.7816 38.1557 41.7816 38.2132V39.2003H41.4476V37.9263L41.4491 37.9255Z" fill="#010101"/>
	<path d="M44.2668 36.4827V38.7215C44.2668 38.8858 44.2705 39.0734 44.2825 39.1997H43.9793L43.9635 38.8784H43.956C43.8527 39.0854 43.6266 39.2423 43.3233 39.2423C42.8748 39.2423 42.5296 38.8634 42.5296 38.3008C42.5259 37.685 42.9093 37.3062 43.3615 37.3062C43.6453 37.3062 43.837 37.4399 43.9216 37.5894H43.9291V36.4835H44.2668V36.4827ZM43.9291 38.1012C43.9291 38.0594 43.9253 38.0019 43.9141 37.96C43.8639 37.7456 43.6805 37.57 43.4274 37.57C43.0785 37.57 42.8718 37.8763 42.8718 38.2858C42.8718 38.6609 43.056 38.971 43.4199 38.971C43.6461 38.971 43.8535 38.8216 43.9149 38.569C43.9261 38.5234 43.9298 38.4771 43.9298 38.4233V38.102L43.9291 38.1012Z" fill="#010101"/>
	<path d="M47.3188 38.2588C47.3188 38.944 46.8433 39.2422 46.3948 39.2422C45.8923 39.2422 45.5052 38.8745 45.5052 38.2895C45.5052 37.6692 45.9118 37.3061 46.4255 37.3061C46.9391 37.3061 47.3188 37.6924 47.3188 38.2588ZM45.8467 38.2782C45.8467 38.684 46.0803 38.9896 46.4105 38.9896C46.7407 38.9896 46.9743 38.687 46.9743 38.27C46.9743 37.9562 46.8171 37.5579 46.4187 37.5579C46.0204 37.5579 45.8474 37.9256 45.8474 38.2775L45.8467 38.2782Z" fill="#010101"/>
	<path d="M47.7785 39.1997V37.6044H47.5179V37.3481H47.7785V37.2599C47.7785 36.9998 47.8362 36.7622 47.9934 36.6135C48.12 36.491 48.2884 36.4417 48.4457 36.4417C48.5647 36.4417 48.6681 36.4686 48.7332 36.4955L48.6875 36.7555C48.6374 36.7323 48.5685 36.7136 48.4726 36.7136C48.1851 36.7136 48.1125 36.9662 48.1125 37.2494V37.3488H48.561V37.6051H48.1125V39.2005H47.7785V39.1997Z" fill="#010101"/>
	<path d="M49.6879 36.6554C49.8908 36.6247 50.1327 36.6016 50.397 36.6016C50.8762 36.6016 51.2176 36.7129 51.4438 36.9229C51.6736 37.1336 51.8077 37.4317 51.8077 37.8487C51.8077 38.2657 51.6774 38.6139 51.4355 38.8515C51.1937 39.0929 50.7953 39.2229 50.2929 39.2229C50.0555 39.2229 49.8556 39.2117 49.6871 39.1922V36.6554H49.6879ZM50.0218 38.9359C50.1064 38.9516 50.2292 38.9554 50.3595 38.9554C51.0724 38.9554 51.4602 38.5571 51.4602 37.8607C51.464 37.2524 51.1188 36.8661 50.4134 36.8661C50.2412 36.8661 50.1102 36.8818 50.0226 36.9005V38.9359H50.0218Z" fill="#010101"/>
	<path d="M53.7942 38.6947C53.7942 38.886 53.7979 39.0541 53.8099 39.1998H53.5111L53.4917 38.8972H53.4842C53.3958 39.0466 53.2004 39.2417 52.8709 39.2417C52.5796 39.2417 52.2307 39.081 52.2307 38.4302V37.3474H52.5684V38.3726C52.5684 38.7246 52.6755 38.9622 52.9825 38.9622C53.2086 38.9622 53.3659 38.8053 53.4273 38.6558C53.4467 38.6058 53.458 38.5445 53.458 38.484V37.3474H53.7957V38.6947H53.7942Z" fill="#010101"/>
	<path d="M54.3543 37.9255C54.3543 37.7074 54.3505 37.5198 54.3385 37.3479H54.6335L54.6448 37.7118H54.6605C54.7451 37.463 54.948 37.3061 55.1742 37.3061C55.2123 37.3061 55.2393 37.3098 55.27 37.3173V37.6349C55.2356 37.6274 55.2011 37.6237 55.1547 37.6237C54.9173 37.6237 54.7481 37.8038 54.7024 38.0563C54.6949 38.1019 54.6867 38.1557 54.6867 38.2132V39.2003H54.3528V37.9263L54.3543 37.9255Z" fill="#010101"/>
	<path d="M55.9989 36.8271C56.0026 36.9422 55.918 37.0334 55.7838 37.0334C55.6647 37.0334 55.5807 36.9414 55.5807 36.8271C55.5807 36.7128 55.6692 36.6164 55.7921 36.6164C55.915 36.6164 55.9997 36.7083 55.9997 36.8271H55.9989ZM55.6227 39.1996V37.3472H55.9607V39.1996H55.6227Z" fill="#010101"/>
	<path d="M57.5478 39.1997L57.5208 38.9666H57.5096C57.4063 39.1123 57.2063 39.2423 56.942 39.2423C56.5661 39.2423 56.3745 38.9785 56.3745 38.7103C56.3745 38.2627 56.7735 38.0176 57.4901 38.0213V37.9832C57.4901 37.83 57.4482 37.5543 57.0686 37.5543C56.8963 37.5543 56.7159 37.6081 56.5856 37.6918L56.5092 37.4699C56.6627 37.3705 56.8851 37.3055 57.1187 37.3055C57.6863 37.3055 57.8241 37.6918 57.8241 38.0632V38.7559C57.8241 38.9165 57.8316 39.0734 57.8548 39.1997H57.5478ZM57.4976 38.2545C57.1292 38.247 56.7114 38.312 56.7114 38.6714C56.7114 38.8896 56.8574 38.9927 57.0296 38.9927C57.2715 38.9927 57.4242 38.8396 57.4781 38.6826C57.4894 38.6483 57.4976 38.6102 57.4976 38.5758V38.2545Z" fill="#010101"/>
	<path d="M58.3677 37.8493C58.3677 37.658 58.3639 37.5011 58.352 37.3479H58.6507L58.6702 37.6543H58.6777C58.7698 37.478 58.9847 37.3061 59.2909 37.3061C59.5478 37.3061 59.9468 37.4593 59.9468 38.0944V39.2003H59.6092V38.1325C59.6092 37.8344 59.4976 37.5856 59.1794 37.5856C58.957 37.5856 58.7848 37.7425 58.7271 37.93C58.7114 37.9719 58.7039 38.0294 58.7039 38.087V39.2003H58.3662V37.8493H58.3677Z" fill="#010101"/>
</svg>
